PathFileType	3	(X/Y/Z)	D:\Jess\Healthy\Labelled\HA01\20250317\SRRun01.trc
DataRate	CameraRate	NumFrames	NumMarkers	Units	OrigDataRate	OrigDataStartFrame	OrigNumFrames
250.0	250.0	4	37	mm	250.0	36875	2501
Frame#	Time	C7			T10			CLAV			LSHO			RSHO			LASIS			RASIS			LPSIS			RPSIS			LILCR			RILCR			LGTR			LTHI			LLTHI			LLEP			LMEP			LPSH			LLSH			LDSH			LLMAL			LMMAL			LTOE			L5TH			LHEE			RGTR			RTHI			RLTHI			RLEP			RMEP			RPSH			RLSH			RDSH			RLMAL			RMMAL			RTOE			R5TH			RHEE			
		X1	Y1	Z1	X2	Y2	Z2	X3	Y3	Z3	X4	Y4	Z4	X5	Y5	Z5	X6	Y6	Z6	X7	Y7	Z7	X8	Y8	Z8	X9	Y9	Z9	X10	Y10	Z10	X11	Y11	Z11	X12	Y12	Z12	X13	Y13	Z13	X14	Y14	Z14	X15	Y15	Z15	X16	Y16	Z16	X17	Y17	Z17	X18	Y18	Z18	X19	Y19	Z19	X20	Y20	Z20	X21	Y21	Z21	X22	Y22	Z22	X23	Y23	Z23	X24	Y24	Z24	X25	Y25	Z25	X26	Y26	Z26	X27	Y27	Z27	X28	Y28	Z28	X29	Y29	Z29	X30	Y30	Z30	X31	Y31	Z31	X32	Y32	Z32	X33	Y33	Z33	X34	Y34	Z34	X35	Y35	Z35	X36	Y36	Z36	X37	Y37	Z37	

1876	147.496	1096.702417789601	1544.094567926098	-312.6992290849927	1024.471961565737	1327.381779232941	-271.3957552845114	1216.584577309476	1458.317848230485	-357.4149232522678	1203.358911618982	1529.806053614868	-196.5633726929185	1106.998430273551	1511.906024112176	-471.7679763648291	1206.890190569629	1048.599909154326	-441.0029192544816	1245.921075906278	1013.308609986156	-209.9123360699575	1022.929865846856	1104.261443649444	-330.6155790240654	1038.699647402482	1104.113208831474	-272.8145354160525	1124.816824719078	1126.631505190679	-487.80280635554	1201.186530874999	1109.186503475683	-154.2160499450845	1149.477208887323	961.112958592982	-520.5049415950579	1275.844553163907	833.3982867204583	-435.5085013441575	1211.943512282435	702.0215871116247	-479.1828464169834	1258.713528843564	568.5106104899685	-459.9860147595068	nan	nan	nan	1334.204514439861	485.2415795177483	-414.9412627558372	1255.579140313135	341.8527980428761	-446.4327228235404	1338.357272331461	262.1540881154229	-403.916056948997	1304.625742893022	138.5153868646929	-413.8147816031143	nan	nan	nan	1456.772860962449	121.0717835764483	-418.2262924057583	1423.184760330625	67.92589571580807	-440.8725875495733	1248.2630843775	103.0222237895815	-344.5156441484929	1154.51318164185	936.6374439412972	-125.465476988912	1215.718566132553	777.1977998165303	-245.6838111275598	1099.850669544743	689.6933112843085	-169.0752060983244	1024.375864361633	554.0696432503361	-186.789318732026	nan	nan	nan	984.2634611492559	441.8151172258904	-230.9781315068863	845.6767563712127	445.5774220812728	-181.6325591033967	801.906695876173	329.324765881507	-229.2670874393494	701.5090693261777	311.5413321549021	-202.7611391537464	nan	nan	nan	677.3957542053639	161.5980494906568	-212.1946743089134	639.4616597232789	190.1961852106997	-174.0527526041548	654.4648796768214	373.7016347937573	-265.0615108604763	
1877	147.5	1096.612721050626	1542.257175661887	-313.2978374269177	1024.082330998985	1325.635960634206	-272.2510903051819	1216.478021431627	1456.287527812038	-357.7374972810507	1203.211410546765	1527.62955696474	-196.8798432603535	1107.396177552878	1509.867802386781	-472.4075033295748	1206.592112482975	1046.457733459288	-442.1009108187454	1246.084809485894	1012.318105737541	-210.7384931242013	1022.853509657214	1102.311670219305	-331.2615649142663	1038.721850292567	1102.097516807795	-273.4875561136342	1124.57405329975	1124.231721590601	-488.5310294801079	1200.238940672697	1107.905104250372	-154.3950378580027	1147.93068238956	957.8535541712787	-521.1131580190846	1275.018261204764	830.6501365701417	-436.6127062930945	1211.568949445063	699.5324396781474	-479.9489362131782	1257.464522259619	566.0899858324304	-460.9586973898416	nan	nan	nan	1331.961121819156	482.4620734298938	-415.4663462956366	1253.008695268025	339.2333152876301	-447.5883475748594	1334.907756301438	259.1370179858328	-404.5291474862048	1300.459469895833	135.7312792205415	-414.6246178140639	nan	nan	nan	1452.479093941102	117.0632153100953	-417.8566075395258	1418.514156778981	64.34015487684773	-440.8459417206093	1243.581881970732	101.1375556636826	-345.3384316697714	1155.491560602678	934.8328773811445	-126.2363770151105	1218.005114755817	775.7223692169565	-246.4508823854105	1103.214460713112	686.6051865051577	-169.7358825076993	1028.776608087167	551.063592882163	-187.4314213490896	nan	nan	nan	987.2752903590372	439.4456659167136	-230.9829561382203	848.4164333202552	446.4597949298227	-182.1873052324267	802.2185374996795	331.1797730987676	-229.5399661162856	701.2802866082104	315.7620814030666	-202.925988541693	nan	nan	nan	675.5253550505088	166.2292791927617	-212.236632643105	637.9213759240125	195.2616081009611	-174.0538563020425	654.7102211683916	378.4674347113339	-265.2070802094149	
1878	147.504	1096.426619491066	1540.204196173559	-313.9379197768949	1023.641261235077	1323.672718866152	-273.1786792834683	1216.360722907587	1454.077015376134	-358.046586148574	1202.95057356417	1525.290403744892	-197.1996903945979	1107.777617873247	1507.677043561394	-473.0701731278368	1206.274322580348	1044.170332966313	-443.2234936909622	1246.229530612142	1011.157658600972	-211.5785816018312	1022.776379397187	1100.066160121762	-331.8574459586374	1038.716084203858	1099.812428202353	-274.1287691968163	1124.271148023783	1121.639742833081	-489.2702180097112	1199.331531969759	1106.391110648201	-154.5666103902791	1146.321073755294	954.5094618710641	-521.7443312903257	1274.342083105665	828.1330402543527	-437.7200974798941	1211.333091860771	697.0261489509478	-480.7811802758395	1256.32295935735	563.5821959696142	-461.9694580603836	nan	nan	nan	1329.689069388278	479.4397663485943	-415.9884869437844	1250.226192926588	336.4950607930139	-448.7832745141656	1331.01717152155	255.8891980151495	-405.0571135408749	1295.565218313277	132.8768439998871	-415.3545804248993	nan	nan	nan	1447.443663233355	112.7159536475371	-417.3979109553654	1412.959981670571	60.56019275004945	-440.8358642123399	1238.113503680718	99.32983531902562	-346.0549108741129	1156.493531744967	932.8074432518288	-126.9978558413697	1220.278018883793	774.0563448100867	-247.1174995301587	1106.567061474786	683.4223451377584	-170.3033200176716	1033.264772933181	547.9835399547248	-187.9988578465188	nan	nan	nan	990.4699677085447	436.9853703018492	-230.9255160934445	851.4259510255757	447.2593089673745	-182.7151253992699	802.8398537394919	332.9696394460275	-229.7620583724703	701.4357366748446	319.8975031236059	-203.0330450211499	nan	nan	nan	674.041327280679	170.7893875530282	-212.315650406126	636.7911821408094	200.2293418983356	-174.055635510485	655.3263949546487	383.1791292578608	-265.2176974831199	
1879	147.508	1096.14014099516	1537.933595592969	-314.6179376597623	1023.150718489836	1321.486212287843	-274.178587497236	1216.236006141711	1451.694567712846	-358.3425218963238	1202.574289915181	1522.796215286276	-197.5210251558197	1108.142383090747	1505.341209062162	-473.7584839891551	1205.934621366482	1041.731732436828	-444.3648623646526	1246.354268505064	1009.810797446364	-212.434971604762	1022.692268595003	1097.523053939343	-332.4028626263336	1038.678413709109	1097.253160007087	-274.7355124837995	1123.913890606159	1118.855772452921	-490.0206131304894	1198.475202477572	1104.640085663214	-154.7345517614983	1144.670933593883	951.0889646405742	-522.3938994924889	1273.812419278701	825.82175075646	-438.8289305041191	1211.214087140228	694.4951614652119	-481.6845212403978	1255.273674548589	560.9725327139965	-463.011985024641	nan	nan	nan	1327.392770078808	476.1774490079328	-416.5051882540654	1247.229775965289	333.6521566753044	-449.9818302730511	1326.705691184247	252.4405944110081	-405.473153198098	1289.974934210882	129.987105049077	-415.9680125420586	nan	nan	nan	1441.706961723096	108.1312855441847	-416.8400758349318	1406.584374053553	56.67861648579569	-440.8375362703363	1231.902852130728	97.59474598993364	-346.6371875289661	1157.517143490719	930.5531659729905	-127.746627795524	1222.522681601049	772.1962825214487	-247.6826782551502	1109.907579732462	680.1444346139847	-170.7687536611595	1037.840157593756	544.8310560138272	-188.4797082342247	nan	nan	nan	993.8441071889175	434.4416134115338	-230.8060482570825	854.7045935846891	447.9678638387558	-183.2072976765064	803.7706548518044	334.6873594304963	-229.9280869610328	701.9729512798161	323.9386149626676	-203.0833241093419	nan	nan	nan	672.932511986987	175.2697735006717	-212.4150154078791	636.0550953202995	205.0971830441023	-174.0517974527119	656.3278036565781	387.8235279017691	-265.1121286209277	
